# xmcd
#
# Track frame offsets: 
#        150
#        12358
#        26300
#        39094
#        53927
#        66082
#        77160
#        90113
#        100672
#        111664
#        125302
#        139556
#        150586
#        162651
#        174868
#        185380
#        200334
#        212255
#        224119
#        236326
#        248678
#        261032
#        271295
#        284374
#        294952
#
# Disc length: 4070 seconds
#
# Revision: 8
# Processed by: cddbd v1.5.2PL0 Copyright (c) Steve Scherf et al.
# Submitted via: ExactAudioCopyFreeDBPlugin 1.0
#
DISCID=4f0fe419
DTITLE=Various Artist - Doughboys, Playboys and Cowboys [disc 2]
DYEAR=1999
DGENRE=Swing
TTITLE0=Shelly Lee Alley and His Alleycats - Women Women Women
TTITLE1=Buddy Jones - Mean Old Lonesome Blues
TTITLE2=Derwood Brown and His Musical Brownies - Bring It on Down to My 
TTITLE2=House
TTITLE3=Cliff Bruner and His Texas Wanderers - Corrine Corrina
TTITLE4=Cliff Bruner and His Texas Wanderers - One Sweet Letter from You
TTITLE5=The Crystal Spring Ramblers - Fort Worth Stomp
TTITLE6=Buddy Jones - The Women ('Bout to Make a Wreck out of Me)
TTITLE7=Buddy Jones - Streamlined Mama
TTITLE8=The Light Crust Doughboys - Blue Guitars
TTITLE9=The Modern Mountaineers - Dirty Dog Blues
TTITLE10=The Modern Mountaineers - Mississippi Sandman
TTITLE11=Bob Skyles and The Skyrockets - Hot Tamale Pete
TTITLE12=The Nite Owls - Married Man Blues
TTITLE13=W. Lee O'Daniel and His Hillbilly Boys - There'll Be Some Chang
TTITLE13=es Made
TTITLE14=W. Lee O'Daniel and His Hillbilly Boys - Dirty Hangover Blues
TTITLE15=Jimmie Revard and His Oklahoma Playboys - Lose Your Blues and L
TTITLE15=augh at Life
TTITLE16=The Range Riders - Range Rider Stomp
TTITLE17=Sons of the Pioneers - Hold That Critter Down
TTITLE18=The Tune Wranglers - Chicken Reel Stomp
TTITLE19=Bob Wills and His Texas Playboys - Playboy Stomp
TTITLE20=Smokey Wood and The Wood Chips - Moonlight in Oklahoma
TTITLE21=Smokey Wood and The Wood Chips - Keep on Truckin'
TTITLE22=Derwood Brown and His Musical Brownies - I'm Confessin' (That I
TTITLE22=Love You)
TTITLE23=The Light Crust Doughboys - Just Once Too Often
TTITLE24=The Modern Mountaineers - Loud Mouth
EXTD=
EXTT0=
EXTT1=
EXTT2=
EXTT3=
EXTT4=
EXTT5=
EXTT6=
EXTT7=
EXTT8=
EXTT9=
EXTT10=
EXTT11=
EXTT12=
EXTT13=
EXTT14=
EXTT15=
EXTT16=
EXTT17=
EXTT18=
EXTT19=
EXTT20=
EXTT21=
EXTT22=
EXTT23=
EXTT24=
PLAYORDER=
